<svg width="81" height="81" viewBox="0 0 81 81" fill="none" xmlns="http://www.w3.org/2000/svg">
<path d="M40.9622 50.2804H45.7231L43.3875 44.8008L40.9622 50.2804Z" fill="url(#paint0_linear_0_199)"/>
<path d="M66.2042 41.9262C65.6652 41.9262 65.2161 41.6567 64.9466 41.1177C64.6771 40.3991 64.9466 39.6805 65.6652 39.3212L70.4262 37.1653C67.9109 32.3145 63.8686 28.1823 58.5687 25.8468L55.8738 32.8535C55.6942 33.3924 55.1552 33.7517 54.6162 33.7517C54.4365 33.7517 54.2569 33.7517 54.1671 33.6619C53.4484 33.3924 53.0891 32.584 53.3586 31.9552L56.0535 24.9485C50.4841 23.1519 44.735 23.4214 39.6147 25.3976L41.6808 30.1586C41.9503 30.8772 41.6808 31.5958 40.9622 31.9552C40.7825 32.045 40.6028 32.045 40.4232 32.045C39.8842 32.045 39.4351 31.7755 39.1656 31.2365L37.0995 26.4756C32.2487 28.9908 28.1166 33.0331 25.781 38.333L32.7877 41.0279C33.5063 41.2974 33.8656 42.1059 33.5961 42.7347C33.4165 43.2736 32.8775 43.633 32.3385 43.633C32.1589 43.633 31.9792 43.633 31.8894 43.5431L24.8827 40.8483C23.0861 46.238 23.2658 51.9871 25.242 57.287L30.003 55.1311C30.7216 54.8616 31.4402 55.1311 31.7996 55.8497C32.0691 56.5684 31.7996 57.287 31.0809 57.6463L26.32 59.8022C28.925 64.8327 33.0572 68.7852 38.2673 71.1207L40.9622 64.114C41.2316 63.3954 42.0401 63.0361 42.6689 63.3056C43.3875 63.5751 43.7469 64.3835 43.4774 65.0123L40.7825 72.019C43.2977 72.8275 45.9028 73.2766 48.418 73.2766C51.3823 73.2766 54.3467 72.7377 57.2213 71.6597L55.0653 66.8987C54.7959 66.1801 55.0653 65.4615 55.784 65.1022C56.5026 64.8327 57.2212 65.1022 57.5806 65.8208L59.7365 70.5817C64.7669 67.9767 68.7194 63.8446 71.055 58.6345L64.0483 55.9396C63.3296 55.6701 62.9703 54.8616 63.2398 54.2328C63.5093 53.5142 64.3178 53.1549 64.9466 53.4244L71.9532 56.1192C73.7498 50.5498 73.4803 44.8007 71.5041 39.6805L66.7432 41.8364C66.5635 41.9262 66.3838 41.9262 66.2042 41.9262ZM49.9451 56.748C49.7654 56.8379 49.5858 56.8379 49.4061 56.8379C48.8671 56.8379 48.418 56.5684 48.1485 56.0294L46.8909 52.9752H39.8842L38.5368 56.1192C38.2673 56.8379 37.4588 57.1074 36.7402 56.8379C36.0215 56.5684 35.7521 55.7599 36.0215 55.0413L42.1299 40.9381C42.3096 40.4889 42.8486 40.1296 43.3875 40.1296C43.9265 40.1296 44.3757 40.4889 44.6452 40.9381L50.7535 55.0413C50.9332 55.6701 50.6637 56.4785 49.9451 56.748ZM57.5806 55.5803C57.5806 56.2989 56.9518 56.9277 56.2331 56.9277C55.5145 56.9277 54.8857 56.2989 54.8857 55.5803V41.4771C54.8857 40.7584 55.5145 40.1296 56.2331 40.1296C56.9518 40.1296 57.5806 40.7584 57.5806 41.4771V55.5803ZM6.91685 21.535H10.6897C11.4083 21.535 12.0371 20.9062 12.0371 20.1875C12.0371 19.4689 11.4981 18.8401 10.6897 18.8401H6.82702C6.10839 18.8401 5.47959 19.4689 5.47959 20.1875C5.47959 20.9062 6.10839 21.535 6.91685 21.535ZM10.0609 44.0821C10.0609 43.3635 9.43207 42.7347 8.71344 42.7347H1.34744C0.628805 42.7347 0 43.3635 0 44.0821C0 44.8007 0.628805 45.4296 1.34744 45.4296H8.62361C9.43207 45.4296 10.0609 44.8007 10.0609 44.0821ZM7.54566 66.6293H3.683C2.96437 66.6293 2.33556 67.2581 2.33556 67.9767C2.33556 68.6953 2.96437 69.3241 3.683 69.3241H7.54566C8.26429 69.3241 8.8931 68.6953 8.8931 67.9767C8.8931 67.2581 8.26429 66.6293 7.54566 66.6293Z" fill="url(#paint1_linear_0_199)"/>
<path d="M67.3717 22.3434L69.7073 16.3249L71.0547 16.8638C71.6835 17.1333 72.3123 17.2232 72.8513 17.2232C74.9174 17.2232 76.8038 15.9655 77.6123 13.9893C78.0614 12.7317 78.0614 11.2944 77.5225 10.1266C76.9835 8.86903 75.9954 7.8809 74.7377 7.43176L56.5922 0.335245C53.9872 -0.652877 51.0228 0.604733 50.0347 3.29961C48.9567 5.90466 50.2144 8.86903 52.9092 9.85715L54.2567 10.3961L51.9211 16.4147C46.4415 15.7859 40.7823 16.5943 35.5722 18.8401H18.6843C17.9656 18.8401 17.3368 19.4689 17.3368 20.1875C17.3368 20.9061 17.9656 21.535 18.6843 21.535H30.5417C28.296 23.0621 26.2299 24.7688 24.4333 26.8349H13.9233C13.2047 26.8349 12.5759 27.4637 12.5759 28.1823C12.5759 28.901 13.2047 29.5298 13.9233 29.5298H22.2774C21.1097 31.1467 20.0317 32.9433 19.1334 34.8297H3.05398C2.33535 34.8297 1.70654 35.4585 1.70654 36.1771C1.70654 36.8958 2.33535 37.5246 3.05398 37.5246H17.9656C16.4385 41.8364 15.8097 46.3278 16.0792 50.7295H7.81493C7.0963 50.7295 6.46749 51.3583 6.46749 52.0769C6.46749 52.7955 7.0963 53.4243 7.81493 53.4243H16.3487C16.6182 55.2209 17.0673 56.9277 17.6063 58.7243H12.2166C11.4979 58.7243 10.8691 59.3531 10.8691 60.0717C10.8691 60.7904 11.4979 61.4192 12.2166 61.4192H18.5944C18.5944 61.509 18.6843 61.5988 18.6843 61.6886C19.4927 63.4852 20.391 65.1022 21.469 66.7191H15.3606C14.642 66.7191 14.0132 67.3479 14.0132 68.0665C14.0132 68.7852 14.642 69.414 15.3606 69.414H23.4452C26.9486 73.5461 31.3502 76.78 36.5603 78.7562C40.3331 80.1935 44.2856 80.9121 48.2381 80.9121C52.6397 80.9121 57.1312 80.0138 61.2634 78.1274C69.1683 74.6241 75.1869 68.2462 78.3309 60.2514C83.9003 46.1482 78.8699 30.7874 67.3717 22.3434ZM53.8075 7.34193C52.5499 6.89278 51.9211 5.45551 52.4601 4.1979C52.9092 2.94029 54.3465 2.31149 55.6041 2.85046L73.6598 9.85715C74.2886 10.1266 74.7377 10.5758 75.0072 11.1148C75.2767 11.7436 75.2767 12.3724 75.0971 13.0012C74.6479 14.2588 73.2106 14.8876 71.953 14.3486L56.4126 8.33005L53.8075 7.34193ZM67.1023 15.3367L64.9464 20.8163C63.3294 19.8282 61.7125 19.0197 59.9159 18.3011C58.1193 17.5825 56.3227 17.1333 54.5262 16.774L56.6821 11.2944L67.1023 15.3367ZM75.9953 59.1734C70.1564 74.4444 52.9092 81.9901 37.7281 76.1512C30.3621 73.2766 24.5232 67.7072 21.2893 60.5209C18.0555 53.2447 17.8758 45.2499 20.7503 37.8839C22.008 34.65 23.8045 31.6857 25.9604 29.1704L26.0503 29.0806C28.835 25.8468 32.3383 23.2417 36.3806 21.4451C40.1535 19.7384 44.2856 18.8401 48.3279 18.8401C51.9211 18.8401 55.5143 19.4689 59.0176 20.8163C74.2886 26.7451 81.8343 43.9025 75.9953 59.1734Z" fill="url(#paint2_linear_0_199)"/>
<defs>
<linearGradient id="paint0_linear_0_199" x1="40.9622" y1="45.714" x2="46.8715" y2="45.8849" gradientUnits="userSpaceOnUse">
<stop stop-color="#FFCC00"/>
<stop offset="1" stop-color="#DB8708"/>
</linearGradient>
<linearGradient id="paint1_linear_0_199" x1="0" y1="27.9128" x2="90.6968" y2="31.9683" gradientUnits="userSpaceOnUse">
<stop stop-color="#FFCC00"/>
<stop offset="1" stop-color="#DB8708"/>
</linearGradient>
<linearGradient id="paint2_linear_0_199" x1="1.70654" y1="13.4854" x2="99.6173" y2="16.6621" gradientUnits="userSpaceOnUse">
<stop stop-color="#FFCC00"/>
<stop offset="1" stop-color="#DB8708"/>
</linearGradient>
</defs>
</svg>
