<svg width="418" height="419" viewBox="0 0 418 419" fill="none" xmlns="http://www.w3.org/2000/svg">
<path d="M3.54189 72.3674C13.345 68.6806 16.9489 57.204 21.4724 48.8239C23.6513 44.7187 26.1658 40.6984 30.2709 38.3517C36.0517 35.0834 43.3424 36.6761 49.0383 32.9894C53.7316 29.9737 55.9105 24.3606 55.9105 18.9134C55.9934 12.6293 52.8099 6.68075 49.0383 1.82166C48.2843 0.817093 46.5259 1.90655 46.9443 2.99398C49.5416 9.36295 52.8928 16.0654 50.7159 23.1034C49.7942 26.0363 47.8659 28.2131 45.1009 29.5553C42.168 31.0631 38.4813 31.146 35.2978 31.7321C29.5999 32.8216 25.0763 35.6716 21.5573 40.278C18.4567 44.2174 16.4456 48.9087 14.2667 53.3494C12.7588 56.5329 11.0832 59.6335 9.07204 62.4815C7.14376 65.0788 4.71422 66.9222 1.86627 68.43C-0.227745 69.5195 1.19522 73.2062 3.54189 72.3674Z" fill="#FFCC00" fill-opacity="0.2"/>
<path d="M76.3535 54.7744C70.2371 57.204 63.7024 58.7947 58.2552 62.5643C46.1903 70.7767 41.1634 85.1862 35.2978 97.8392C32.1972 104.374 28.5953 110.909 23.2329 115.853C18.3718 120.376 11.92 123.56 5.13461 123.309C4.38068 123.309 3.62474 123.224 2.87081 123.056C0.273499 122.638 -0.815956 126.493 1.78136 126.996C8.82138 128.419 15.6916 126.493 21.6402 122.638C27.8414 118.618 32.3649 112.752 35.8839 106.468C42.8391 94.1525 46.4409 79.5732 57 69.5195C66.6353 60.3875 81.8836 61.0565 90.8499 51.0028C95.4583 45.8931 97.134 38.7702 96.9662 32.0677C96.7156 24.6113 93.8656 17.4904 90.2637 11.0386C88.4203 7.68733 86.4092 4.33609 83.9796 1.40326C82.8053 0.063166 81.1297 1.73878 81.7158 3.16175C83.2257 6.68075 85.3197 10.032 87.0782 13.4681C88.7559 16.9022 90.2637 20.4212 91.2683 24.108C93.0288 30.3092 93.1117 37.3472 90.3466 43.2957C87.5815 49.2443 82.2191 52.5106 76.3535 54.7744Z" fill="#FFCC00" fill-opacity="0.2"/>
<path d="M142.798 44.7187C143.219 50.9199 142.465 57.4546 139.95 63.2354C137.436 69.0162 133.248 73.5418 127.885 76.8081C122.438 80.0765 116.322 81.835 110.288 83.5955C104.004 85.5217 97.6372 87.3651 91.8544 90.5486C78.8679 97.5037 71.1588 110.741 65.1274 123.727C58.8433 137.3 53.6467 151.962 42.7542 162.604C37.98 167.211 32.1972 170.647 25.6625 172.072C19.5461 173.412 12.9265 172.658 7.47926 169.39C6.8931 169.054 6.3898 168.636 5.88853 168.3C4.88196 167.546 3.29123 168.132 2.62018 169.139C1.94911 170.311 2.45241 171.568 3.459 172.405C14.7699 180.868 30.6064 178.188 41.3312 170.228C53.4789 161.262 60.0985 147.354 66.0491 133.866C71.8299 120.795 78.0291 106.553 90.0111 97.9221C100.653 90.2131 114.393 88.9579 126.208 83.6784C132.241 80.9982 137.521 76.9759 141.29 71.6135C145.145 66.1682 147.071 59.6335 147.742 53.0139C149.335 38.184 143.134 23.8574 135.677 11.3741C133.666 8.02287 131.487 4.75451 129.308 1.48614C128.051 -0.440113 125.035 1.23551 126.208 3.32952C133.331 16.2332 141.709 29.6381 142.798 44.7187Z" fill="#FFCC00" fill-opacity="0.2"/>
<path d="M163.661 108.647C153.022 115.517 140.704 119.372 129.894 126.157C124.532 129.508 119.758 133.53 115.903 138.64C111.545 144.506 109.284 151.627 107.273 158.497C105.344 165.201 103.501 171.819 100.402 178.103C97.4695 183.884 93.7827 189.163 89.4249 193.855C80.5435 203.49 68.9799 210.528 56.244 213.794C49.2909 215.555 42.0851 216.141 34.8793 215.806C31.3604 215.638 27.7565 215.219 24.2375 214.633C20.5507 214.047 17.2823 212.958 13.8482 211.533C10.8305 210.275 7.89967 208.6 5.04971 206.924C2.53729 205.416 0.190613 209.439 2.78793 210.864C9.15488 214.383 16.1949 216.559 23.148 218.488C30.186 220.414 37.5595 221 44.8502 220.499C58.6756 219.492 71.9976 214.465 83.0579 206.087C93.6978 198.045 101.993 187.32 107.022 175.087C109.785 168.385 111.295 161.262 113.557 154.392C115.651 147.942 118.668 141.993 123.527 137.217C132.326 128.419 144.809 124.146 155.87 118.868C161.818 116.02 167.516 112.835 172.628 108.73C177.905 104.542 182.514 99.5977 186.453 94.1525C194.496 83.2599 199.272 70.1056 200.446 56.6158C201.619 42.6247 198.35 28.3809 191.731 15.9805C188.8 10.4524 184.945 5.34065 180.587 0.899957C178.912 -0.858532 176.397 1.73878 177.907 3.49727C186.956 13.8865 192.82 26.8731 194.916 40.5307C196.842 53.7678 194.831 67.3405 189.133 79.4054C183.52 91.3025 174.639 101.524 163.661 108.647Z" fill="#FFCC00" fill-opacity="0.2"/>
<path d="M205.305 140.569C193.156 147.188 179.33 149.951 167.015 156.403C160.896 159.586 155.451 163.944 151.011 169.307C146.738 174.584 143.469 180.618 140.536 186.734C137.604 192.933 135.006 199.217 131.906 205.333C128.89 211.197 125.286 216.727 121.181 221.839C112.803 232.143 102.329 240.606 90.5994 246.723C78.0292 253.257 63.9532 256.776 49.7943 257.195C42.3359 257.447 34.8795 256.776 27.5888 255.351C23.9021 254.597 20.3002 253.676 16.6963 252.503C13.1773 251.331 9.65829 250.242 6.38994 248.398C5.97154 248.148 5.63602 247.98 5.21761 247.727C4.04529 247.058 2.45253 247.394 1.78148 248.649C0.859787 250.157 1.78148 251.75 3.29135 252.336C4.88208 253.007 6.55771 253.508 8.15045 254.264C9.99384 255.101 11.8372 255.855 13.6806 256.526C17.1996 257.781 20.8015 258.788 24.4882 259.624C31.8618 261.3 39.4031 262.139 47.0292 262.222C61.6914 262.307 76.1858 259.038 89.5099 252.839C101.658 247.141 112.55 238.931 121.516 229.045C126.042 224.018 130.062 218.571 133.498 212.79C136.935 206.924 139.7 200.642 142.465 194.441C145.228 188.242 148.161 182.125 151.847 176.428C155.534 170.897 160.227 166.206 165.925 162.772C177.822 155.398 191.898 152.801 204.384 146.768C227.927 135.457 246.11 113.17 252.981 88.0361C260.104 61.7275 254.489 31.4815 237.565 10.032C235.553 7.43467 233.375 5.09001 230.945 2.82823C229.605 1.57101 227.927 3.4144 229.017 4.75449C233.207 10.1169 237.061 15.8148 240.245 21.7633C243.428 27.7947 245.775 34.0788 247.618 40.6135C251.305 53.5172 251.976 67.4254 249.379 80.5798C244.603 105.882 227.927 128.251 205.305 140.569Z" fill="#FFCC00" fill-opacity="0.2"/>
<path d="M282.725 126.996C277.027 133.112 270.41 137.886 263.287 142.159C255.663 146.685 247.871 151.041 241.084 156.906C234.967 162.184 229.856 168.553 225.415 175.255C216.449 188.828 209.829 203.741 200.697 217.148C191.816 230.217 180.838 241.779 168.605 251.749C142.966 272.528 110.959 284.928 78.0291 286.939C52.6422 288.447 27.2533 284.257 3.96036 274.121C2.62027 273.533 1.1124 273.7 0.35849 275.042C-0.312592 276.13 -0.0619507 278.058 1.28015 278.644C34.2933 293.222 71.8299 296.825 106.937 288.53C138.357 281.157 167.348 263.814 189.218 240.188C194.663 234.322 199.607 228.038 204.216 221.503C208.824 214.884 212.762 207.763 216.533 200.725C224.158 186.649 231.531 171.819 244.016 161.262C250.719 155.566 258.679 151.712 266.22 147.188C273.508 142.913 280.296 137.971 286.162 131.855C297.305 120.208 304.846 105.378 308.951 89.8795C316.41 61.1413 311.215 30.392 300.405 3.2466C299.902 1.98938 298.815 1.15259 297.39 1.57099C296.215 1.90651 295.211 3.32947 295.714 4.58669C301.998 22.2646 306.439 40.8662 306.689 59.7164C306.942 76.3897 303.674 92.9781 296.132 107.893C292.446 114.678 288.005 121.215 282.725 126.996Z" fill="#FFCC00" fill-opacity="0.2"/>
<path d="M32.4501 299.506C22.645 298.501 12.4235 299.087 2.70328 300.763C0.190865 301.181 0.859901 305.121 3.29147 305.121C11.8373 305.121 20.3003 304.199 28.8462 304.7C36.1368 305.121 43.4255 306.629 50.0451 309.644C56.2442 312.577 61.6915 316.85 65.2934 322.799C68.6466 328.244 70.2374 334.779 68.9802 341.063C65.9644 355.389 51.2174 362.931 39.7387 369.633C33.2869 373.405 27.1705 377.593 21.8082 382.704C16.7813 387.479 12.3406 393.009 8.73672 398.957C5.55325 404.069 3.03881 409.599 1.11256 415.295C0.609261 416.803 1.69872 418.479 3.1237 418.899C4.71442 419.317 6.2243 418.396 6.72557 416.888C10.9985 403.984 18.8753 392.508 29.1817 383.709C40.5775 373.991 55.4903 369.215 65.7967 358.154C70.6578 352.96 74.009 346.593 74.9307 339.472C75.7675 332.602 73.5886 325.479 69.9867 319.615C61.9422 306.711 46.8616 301.014 32.4501 299.506Z" fill="#FFCC00" fill-opacity="0.2"/>
<path d="M2.70314 377.928C4.04525 379.353 6.38991 378.264 6.4748 376.42C6.55767 375.08 6.4748 373.906 6.97809 372.651C7.39649 371.476 8.48595 370.472 9.49051 369.801C12.4233 367.875 16.4456 367.79 19.7969 367.288C26.6671 366.199 33.4545 363.602 38.8169 358.993C43.9286 354.635 46.9443 348.018 46.7766 341.315C46.6088 334.445 42.6714 328.497 36.3873 325.647C31.5282 323.468 26.2487 323.049 20.9692 323.302C17.8706 323.468 14.8529 323.72 11.7523 323.888C10.3293 323.971 8.90435 323.971 7.39649 323.888C5.88864 323.803 4.29589 323.635 2.87091 324.224C2.11698 324.474 1.86634 325.396 2.36964 325.982C3.62483 327.322 5.55311 327.826 7.3116 328.076C9.40763 328.329 11.5017 328.497 13.6806 328.579C17.5351 328.662 21.3047 328.329 25.1593 328.579C31.1078 328.998 37.309 330.758 40.0741 336.454C42.4208 341.315 40.9109 348.018 37.6445 352.123C33.4545 357.318 27.0875 359.998 20.7186 361.423C17.7312 362.046 14.5598 362.297 11.5465 363.072C10.8901 363.241 8.84898 361.623 8.23329 361.34C7.06096 360.837 6.55767 359.244 7.14383 358.072C8.06553 356.06 10.3293 355.139 12.3405 354.553C14.9378 353.799 17.618 353.38 20.0475 352.038C22.3113 350.866 24.0698 348.855 24.7409 346.425C26.1658 341.902 22.8975 337.042 18.8752 335.114C14.0161 332.685 7.56425 333.942 2.9558 336.288C1.94921 336.79 2.45251 338.383 3.54196 338.298C8.06755 338.215 13.7634 336.371 17.618 339.64C18.8752 340.644 19.9646 342.152 20.1324 343.828C20.3002 345.839 18.7923 347.096 17.1167 347.933C14.9378 349.022 12.3405 349.275 10.0767 350.029C7.56425 350.783 5.13471 352.123 3.54196 354.302C0.85976 358.072 2.36964 363.852 7.3116 364.523C7.40576 364.523 7.43867 364.645 7.35651 364.691C7.00854 364.886 6.63216 365.081 6.30703 365.277C2.62027 367.622 -1.14936 373.906 2.70314 377.928Z" fill="#FFCC00" fill-opacity="0.2"/>
<path d="M323.029 25.0297C324.955 32.571 323.783 40.1103 322.944 47.7365C322.19 54.7745 322.275 61.8954 325.794 68.2623C329.146 74.2957 335.43 77.8147 342.3 76.893C349.924 75.8865 355.707 70.6918 360.23 64.8282C365.007 58.627 369.364 52.0094 373.051 45.0543C374.642 42.0386 376.318 39.0229 378.832 36.7591C381.429 34.4144 385.284 33.5756 388.384 32.2355C394.668 29.3875 400.114 24.9469 404.89 20.0878C407.319 17.5733 409.583 14.8083 411.592 11.9603C413.771 9.02747 415.532 6.17953 417.207 3.07893C417.876 1.98947 416.369 0.817147 415.447 1.73884C413.102 4.25125 410.756 6.76569 408.494 9.44587C406.23 12.0432 403.968 14.7254 401.539 17.2378C396.847 22.1818 391.483 26.4547 385.284 29.3027C381.933 30.8105 378.581 31.8171 375.731 34.2466C373.134 36.5084 371.458 39.6919 369.783 42.7076C366.096 49.5799 361.991 56.3652 357.047 62.4815C352.606 67.9268 346.741 72.9536 339.284 72.5352C333.083 72.1168 329.564 66.336 328.139 60.9737C326.213 53.685 328.224 45.8931 328.81 38.5196C329.396 31.0632 328.224 23.6896 325.206 16.8194C323.112 11.9603 320.179 7.35186 316.492 3.58222C314.231 1.31842 310.879 4.75455 312.973 7.10122C317.917 12.1281 321.269 18.1595 323.029 25.0297Z" fill="#FFCC00" fill-opacity="0.2"/>
<path d="M330.654 6.51306C331.911 6.59795 333.168 6.59795 334.255 7.18411C335.598 7.93804 336.267 9.44589 336.602 10.8709C337.609 14.7254 336.77 18.9134 336.267 22.768C335.345 29.8888 335.094 38.4347 340.792 43.7971C343.139 46.0609 346.322 47.401 349.591 47.3161C352.774 47.2332 355.539 45.4727 357.55 43.128C359.561 40.7814 360.734 37.8485 361.991 35.0835C363.414 31.9 365.007 28.8843 366.767 25.9514C369.28 21.8463 372.212 18.1595 375.481 14.7254C377.156 12.9649 378.747 11.2893 380.425 9.61366C382.016 8.02293 384.362 6.59795 385.033 4.41904C385.116 4.00064 384.866 3.66511 384.445 3.66511C382.854 3.58224 381.512 4.41904 380.257 5.34073C378.747 6.34731 377.239 7.43475 375.899 8.6091C373.219 10.8709 370.872 13.3833 368.611 16.1484C364.17 21.6785 360.817 27.6271 358.052 34.1618C356.962 36.844 355.707 39.6091 353.611 41.6202C351.6 43.5464 348.584 43.5464 346.155 42.2892C339.535 38.8551 340.121 30.0566 340.792 23.7725C341.295 18.6628 342.049 12.7143 340.121 7.77028C339.284 5.59137 337.776 3.66511 335.513 2.74342C334.423 2.32502 333.419 2.07439 332.246 2.15726C330.821 2.24013 329.982 2.82831 329.146 4.00064C328.475 5.0901 329.564 6.43019 330.654 6.51306Z" fill="#FFCC00" fill-opacity="0.2"/>
<path d="M342.55 5.17288C344.143 4.75448 345.483 5.92681 345.987 7.35179C346.825 9.86623 345.819 12.8819 345.568 15.3944C345.316 17.8239 345.819 20.4212 347.327 22.4324C349.087 24.779 351.517 25.6158 354.282 25.1974C356.711 24.8619 358.89 23.1034 360.649 21.5956C362.492 20.0028 364.085 18.0766 365.257 15.9805C366.432 14.0543 367.268 11.8754 367.939 9.69847C368.526 7.51956 368.944 4.83736 368.275 2.66047C367.939 1.48612 366.347 1.57101 366.011 2.66047C365.342 4.67161 365.007 6.76563 364.336 8.77678C363.667 10.8708 362.492 12.797 361.237 14.6404C360.063 16.2332 358.64 17.741 357.047 18.9983C355.875 19.9199 353.36 21.7633 351.852 20.5061C350.344 19.2489 350.344 16.9022 350.512 15.0588C350.763 12.2958 351.266 9.78134 350.763 7.01627C350.009 2.4927 344.729 -1.36183 340.707 2.0743C339.199 3.24663 340.792 5.59128 342.55 5.17288Z" fill="#FFCC00" fill-opacity="0.2"/>
<path d="M257.674 118.115C250.383 129.508 241.251 139.311 230.609 147.607C218.292 157.242 204.802 165.367 192.905 175.591C181.341 185.56 172.46 198.045 163.914 210.696C155.451 223.262 146.905 235.915 135.677 246.304C124.868 256.358 111.964 264.318 98.0556 269.345C83.727 274.539 68.4786 276.633 53.2283 275.796C37.4767 274.875 22.3112 270.434 8.15027 263.647C6.89307 263.061 5.55298 262.474 4.29575 261.888C1.86621 260.714 -0.227814 264.065 2.11685 265.573C15.4389 273.953 31.5281 278.141 47.112 279.649C62.4452 281.157 78.029 279.315 92.6083 274.622C106.601 270.099 119.756 263.061 131.152 253.761C142.883 244.293 152.015 232.228 160.563 219.911C169.192 207.428 177.655 194.441 188.547 183.884C199.943 172.909 213.601 165.202 226.419 156.152C232.536 151.88 238.401 147.271 243.849 142.159C248.625 137.636 252.981 132.609 256.92 127.331C264.795 116.774 270.828 104.96 275.101 92.4769C283.564 67.759 284.821 39.8597 277.195 14.8083C276.106 11.2893 274.683 7.77029 273.175 4.41905C272.253 2.4079 268.817 3.83288 269.571 5.9269C274.012 18.1595 276.862 30.9783 277.616 43.9649C278.285 56.9514 276.777 70.1057 273.426 82.6739C269.989 95.0742 264.712 107.054 257.674 118.115Z" fill="#FFCC00" fill-opacity="0.2"/>
<path d="M212.847 15.6471C214.104 19.0812 215.109 22.6851 216.03 26.287C217.791 33.4078 218.628 40.6136 218.795 47.9022C219.046 61.9782 216.198 76.1391 210.249 88.9579C204.719 100.855 196.675 111.412 186.957 120.126C182.095 124.481 176.818 128.168 171.203 131.437C165.004 134.956 158.299 137.553 151.847 140.651C145.313 143.752 139.279 147.607 134.335 152.969C129.812 157.911 126.46 163.859 123.528 169.725C120.512 175.757 117.83 181.958 114.729 187.989C111.628 193.938 107.859 199.553 103.501 204.662C94.7045 214.884 83.5593 223.011 71.159 228.206C57.1658 233.987 41.8326 235.998 26.8349 234.239C19.2936 233.401 11.6694 231.557 4.63145 228.792C3.62486 228.374 2.45255 229.213 2.2019 230.217C1.86638 231.39 2.6203 232.311 3.62486 232.647C10.8306 235.58 18.289 237.591 25.9981 238.595C33.6223 239.602 41.4142 239.517 49.0384 238.512C63.367 236.669 76.9418 231.307 88.756 223.096C99.982 215.304 109.284 205.166 116.237 193.436C122.941 182.041 127.214 169.054 135.928 158.833C140.536 153.47 146.067 149.618 152.436 146.6C158.97 143.417 165.84 140.987 172.209 137.636C183.939 131.352 194.328 122.638 202.708 112.334C211.254 101.777 217.706 89.5441 221.393 76.3898C225.415 61.8954 226.001 46.5622 223.321 31.8171C222.399 26.8731 221.142 22.014 219.466 17.2378C218.628 14.8083 217.623 12.3787 216.534 10.0321C215.527 7.77028 214.104 5.59137 212.847 3.49735C211.422 1.1527 208.153 3.16183 209.243 5.59137C210.5 8.77687 211.672 12.211 212.847 15.6471Z" fill="#FFCC00" fill-opacity="0.2"/>
<path d="M162.74 16.3161C163.16 20.4212 163.494 24.5284 163.662 28.6336C163.997 36.759 163.494 44.8865 161.818 52.9311C159.221 65.9176 153.272 78.2331 143.888 87.5329C139.279 92.0564 133.917 95.7432 127.968 98.1728C121.013 101.023 113.64 102.698 107.105 106.553C95.9617 113.003 90.0112 125.152 84.6488 136.296C81.8837 142.076 79.1187 147.774 75.6845 153.137C72.2484 158.497 67.9755 163.273 63.1164 167.378C53.4791 175.757 41.6649 181.287 29.2645 183.969C21.2219 185.644 12.7589 185.98 4.54657 184.723C3.37425 184.555 2.11703 184.973 1.78149 186.314C1.448 187.403 2.11703 188.911 3.37425 189.079C29.0138 193.016 55.9106 182.795 72.6668 163.023C81.0469 153.22 85.7383 141.238 91.9395 130.012C94.9552 124.649 98.3913 119.622 102.832 115.349C107.859 110.573 114.143 107.976 120.595 105.714C127.297 103.367 133.917 101.023 139.783 96.9176C145.23 93.1459 149.836 88.3717 153.776 83.0093C162.321 71.4457 166.679 57.5375 168.019 43.3786C168.606 36.8439 168.606 30.2243 168.102 23.6896C167.852 20.3384 167.516 16.9871 166.93 13.7188C166.344 10.2846 165.505 7.01628 164.668 3.66505C164.25 1.90656 161.232 2.24006 161.4 4.08345C162.071 8.18861 162.321 12.2109 162.74 16.3161Z" fill="#FFCC00" fill-opacity="0.2"/>
<path d="M104.843 16.6516C105.848 20.7568 107.022 24.8619 108.11 29.052C109.953 35.9222 112.132 43.2958 111.127 50.4995C109.031 65.4143 92.6088 69.1011 80.7117 73.5418C73.6737 76.1391 67.3047 79.9087 62.2778 85.5217C57.5016 90.8013 53.9826 97.0853 50.7992 103.367C44.7657 115.182 38.5665 129.593 25.4102 134.871C19.7143 137.132 13.1776 137.553 7.8152 134.367C4.96726 132.692 2.36995 137.132 5.2179 138.808C11.0836 142.244 18.1216 142.412 24.5734 140.484C31.2759 138.475 36.8909 134.202 41.3316 128.922C50.6314 117.947 54.8214 103.703 63.4522 92.2242C67.7251 86.6112 73.2553 82.5889 79.7071 79.9916C86.4925 77.2285 93.6982 75.3852 100.235 72.1168C106.351 69.1011 111.964 64.4926 114.814 58.1257C117.915 51.0028 117.244 43.0431 115.568 35.5867C114.394 30.2243 112.803 24.9468 111.295 19.6673C109.785 14.1392 108.278 8.44128 106.183 3.07889C105.179 0.396692 101.492 1.40328 101.911 4.25122C102.664 8.35638 103.837 12.5464 104.843 16.6516Z" fill="#FFCC00" fill-opacity="0.2"/>
<path d="M65.1274 35.0005C63.5346 37.7656 61.1051 39.609 58.2551 41.0319C55.2394 42.5418 51.971 43.3786 48.7876 44.4681C45.5192 45.6404 42.4206 47.1483 39.4878 49.1594C33.7899 53.0968 29.2643 58.6269 26.5841 65.0788C23.9868 71.1122 22.9802 77.8976 19.2934 83.4277C16.3606 87.8684 11.0831 91.1348 5.72073 89.4591C4.54638 89.0407 3.20629 89.8796 2.87076 91.0519C2.53725 92.392 3.29118 93.4814 4.46351 93.8998C10.9153 96.4143 17.8705 91.9736 21.723 87.0296C26.3314 81.081 27.4209 73.374 30.5215 66.6715C33.2866 60.6381 37.9799 55.6112 43.7607 52.3429C49.7092 48.9088 56.8321 48.1548 62.7807 44.8036C69.4832 40.9491 72.7515 33.7433 73.2548 26.2869C73.841 18.0766 70.4048 9.69849 66.4674 2.66049C65.378 0.732218 62.2774 1.98944 62.8636 4.16835C64.9596 11.457 67.8924 18.495 67.5569 26.2869C67.472 29.3875 66.6352 32.4032 65.1274 35.0005Z" fill="#FFCC00" fill-opacity="0.2"/>
</svg>
