<svg width="80" height="98" viewBox="0 0 80 98" fill="none" xmlns="http://www.w3.org/2000/svg">
<path d="M19.4567 51.6097L24.3952 54.4918V61.4666L19.4567 58.5845V51.6097ZM33.9564 60.064L26.4559 55.7023V63.292C26.4745 64.0798 25.5834 64.637 24.915 64.2143L17.9158 60.1408C17.5816 59.9487 17.3959 59.6028 17.3959 59.2186V50.4184L9.91402 46.0567V74.4939L33.9564 88.8663V60.064ZM59.6326 74.4939V46.076L36.0172 60.0448V88.5973L59.6326 74.4939ZM50.0714 40.5807L27.5884 53.8962L34.9775 58.2002L58.6672 44.193L51.3709 39.8313L50.0714 40.5807ZM44.316 35.6234L20.4593 49.7651L25.4905 52.6857L49.273 38.6016C48.8275 38.3326 44.873 35.9692 44.316 35.6234ZM10.9166 44.193C12.7731 45.269 16.5234 47.4594 18.3799 48.5354L42.2553 34.3936L34.7733 29.9359L10.9166 44.193ZM72.7956 28.2066C65.2209 16.0247 51.5752 7.93552 37.6324 7.20537C37.094 7.16694 36.6856 6.7058 36.6856 6.14858V0L19.4939 11.5094L36.6856 23.0188V17.5811C36.6856 16.9855 37.1683 16.4859 37.7438 16.5243C53.3575 16.5627 68.0243 28.0913 72.5357 43.5397C77.6598 59.1609 71.626 77.2992 59.1871 87.2523C40.3987 102.489 11.8448 96.2638 0 74.9743C14.0356 102.451 50.4984 105.909 69.6766 82.2565C82.0784 67.1156 83.2295 44.827 72.7956 28.2066Z" fill="url(#paint0_linear_0_206)"/>
<defs>
<linearGradient id="paint0_linear_0_206" x1="0" y1="16.3333" x2="99.1507" y2="19.0221" gradientUnits="userSpaceOnUse">
<stop stop-color="#FFCC00"/>
<stop offset="1" stop-color="#DB8708"/>
</linearGradient>
</defs>
</svg>
