<svg width="43" height="44" viewBox="0 0 43 44" fill="none" xmlns="http://www.w3.org/2000/svg">
<path fill-rule="evenodd" clip-rule="evenodd" d="M13.3653 3.03337C13.9699 1.75662 15.2717 0.869385 16.7809 0.869385H25.4168C26.9238 0.869385 28.2256 1.75662 28.8323 3.03337C30.3069 3.04635 31.4577 3.11343 32.4853 3.51593C33.7121 3.99693 34.7791 4.81435 35.564 5.87467C36.3564 6.94152 36.7277 8.31348 37.2394 10.1983L37.3193 10.4926L38.5931 15.182C39.4424 15.6115 40.1869 16.2232 40.7737 16.9737C42.1166 18.6984 42.3541 20.752 42.1166 23.1065C41.8834 25.3916 41.1666 28.2697 40.2685 31.8727L40.2102 32.1C39.6424 34.3786 39.1804 36.2288 38.6341 37.6722C38.0598 39.1784 37.3344 40.4118 36.1362 41.3488C34.9401 42.2858 33.5691 42.6905 31.9737 42.8853C30.4429 43.067 28.5409 43.067 26.1984 43.067H15.9993C13.6568 43.067 11.7526 43.067 10.224 42.8831C8.62636 42.6927 7.25756 42.2858 6.05933 41.3467C4.86325 40.4118 4.13783 39.1784 3.56354 37.6722C3.01515 36.2288 2.55529 34.3786 1.98748 32.1L1.92918 31.8727C1.03104 28.2697 0.312102 25.3916 0.0810905 23.1086C-0.156398 20.7499 0.0810901 18.6984 1.42182 16.9737C2.03281 16.1904 2.76471 15.6104 3.6024 15.182L4.8762 10.4926L4.95824 10.1983C5.46992 8.31348 5.84127 6.94152 6.63362 5.87251C7.4189 4.81298 8.4858 3.99633 9.71233 3.51593C10.74 3.11343 11.8886 3.04419 13.3653 3.03337ZM13.3675 6.28583C11.9382 6.30098 11.3661 6.35508 10.8911 6.54118C10.2304 6.80017 9.65579 7.24038 9.23304 7.81144C8.85306 8.3243 8.62852 9.04058 8.00241 11.3495L7.23813 14.1541C9.47916 13.8533 12.3722 13.8533 15.9648 13.8533H26.2307C29.8255 13.8533 32.7185 13.8533 34.9574 14.1541L34.1952 11.3474C33.567 9.03842 33.3446 8.32214 32.9646 7.80927C32.5419 7.23822 31.9672 6.798 31.3065 6.53902C30.8315 6.35291 30.2573 6.29881 28.828 6.28367C28.5211 6.92996 28.0378 7.47586 27.4341 7.8581C26.8304 8.24033 26.1309 8.44324 25.4168 8.44332H16.7809C16.0668 8.44324 15.3673 8.24033 14.7636 7.8581C14.1598 7.47586 13.6765 6.92996 13.3697 6.28367M16.7809 4.11536C16.6377 4.11536 16.5004 4.17235 16.3992 4.27381C16.298 4.37527 16.2411 4.51287 16.2411 4.65635C16.2411 4.79983 16.298 4.93744 16.3992 5.03889C16.5004 5.14035 16.6377 5.19735 16.7809 5.19735H25.4168C25.56 5.19735 25.6972 5.14035 25.7985 5.03889C25.8997 4.93744 25.9566 4.79983 25.9566 4.65635C25.9566 4.51287 25.8997 4.37527 25.7985 4.27381C25.6972 4.17235 25.56 4.11536 25.4168 4.11536H16.7809ZM7.49721 17.3935C5.53253 17.6792 4.58042 18.1986 3.97806 18.9733C3.37355 19.7458 3.10367 20.7953 3.30446 22.7775C3.50956 24.803 4.16805 27.4517 5.10505 31.2171C5.70525 33.6148 6.11978 35.2767 6.59476 36.5188C7.04814 37.7177 7.49505 38.3517 8.05639 38.791C8.61557 39.2281 9.33667 39.5073 10.6105 39.6609C11.9275 39.8189 13.6331 39.8211 16.1029 39.8211H26.099C28.5668 39.8211 30.2767 39.8189 31.5915 39.6609C32.8653 39.5094 33.5864 39.2281 34.1456 38.791C34.7069 38.3517 35.1517 37.7177 35.6094 36.5188C36.08 35.2767 36.4967 33.6148 37.0948 31.2171C38.0339 27.4517 38.6924 24.803 38.8954 22.7775C39.0983 20.7953 38.8263 19.7436 38.2239 18.9711C37.6216 18.1985 36.6694 17.6792 34.7026 17.3935C32.6948 17.1036 29.9701 17.0992 26.099 17.0992H16.1029C12.2319 17.0992 9.50723 17.1036 7.49937 17.3935" fill="white"/>
</svg>
