<svg width="25" height="25" viewBox="0 0 25 25" fill="none" xmlns="http://www.w3.org/2000/svg">
<path d="M12.5 0C19.4038 0 25 5.59625 25 12.5C25 19.4037 19.4038 25 12.5 25C9.58561 25.0042 6.76207 23.986 4.52126 22.1225L4.21626 21.8612L5.34251 19.4837C6.95249 21.1339 9.08316 22.177 11.3739 22.4367C13.6646 22.6963 15.9747 22.1565 17.9132 20.9085C19.8516 19.6606 21.2994 17.7812 22.0113 15.5885C22.7233 13.3958 22.6557 11.0244 21.8201 8.87575C20.9845 6.7271 19.4322 4.93317 17.4258 3.79758C15.4195 2.662 13.0824 2.25452 10.8102 2.64412C8.53794 3.03372 6.47009 4.19646 4.95665 5.93554C3.4432 7.67462 2.57713 9.88321 2.50502 12.1875L2.50002 12.5H5.62501L2.24252 19.645C0.778738 17.5503 -0.00426329 15.0555 1.74592e-05 12.5C1.74592e-05 5.59625 5.59626 0 12.5 0ZM13.75 5V7.5H16.875V9.99999H10C9.84383 9.99971 9.6932 10.0579 9.57778 10.1631C9.46237 10.2684 9.39053 10.413 9.37642 10.5685C9.3623 10.7241 9.40694 10.8793 9.50153 11.0035C9.59613 11.1278 9.73383 11.2122 9.88751 11.24L10 11.25H15C15.8288 11.25 16.6237 11.5792 17.2097 12.1653C17.7958 12.7513 18.125 13.5462 18.125 14.375C18.125 15.2038 17.7958 15.9986 17.2097 16.5847C16.6237 17.1707 15.8288 17.5 15 17.5H13.75V20H11.25V17.5H8.12501V15H15C15.1562 15.0003 15.3068 14.9421 15.4222 14.8369C15.5377 14.7316 15.6095 14.587 15.6236 14.4315C15.6377 14.2759 15.5931 14.1207 15.4985 13.9965C15.4039 13.8722 15.2662 13.7878 15.1125 13.76L15 13.75H10C9.17121 13.75 8.37635 13.4208 7.7903 12.8347C7.20425 12.2486 6.87501 11.4538 6.87501 10.625C6.87501 9.79619 7.20425 9.00134 7.7903 8.41529C8.37635 7.82924 9.17121 7.5 10 7.5H11.25V5H13.75Z" fill="#262626"/>
</svg>
