<svg width="44" height="43" viewBox="0 0 44 43" fill="none" xmlns="http://www.w3.org/2000/svg">
<circle cx="22.1182" cy="21.5" r="21.5" fill="white"/>
<path d="M11.5637 20.5009C11.5637 15.9966 11.5637 13.7439 12.9636 12.3452C14.3635 10.9465 16.615 10.9453 21.1193 10.9453H23.5082C28.0124 10.9453 30.2651 10.9453 31.6638 12.3452C33.0625 13.7451 33.0637 15.9966 33.0637 20.5009V22.8898C33.0637 27.394 33.0637 29.6467 31.6638 31.0454C30.2639 32.4441 28.0124 32.4453 23.5082 32.4453H21.1193C16.615 32.4453 14.3623 32.4453 12.9636 31.0454C11.5649 29.6455 11.5637 27.394 11.5637 22.8898V20.5009Z" stroke="black" stroke-width="4"/>
<path d="M27.6886 18.1117C28.6781 18.1117 29.4803 17.3095 29.4803 16.32C29.4803 15.3305 28.6781 14.5283 27.6886 14.5283C26.6991 14.5283 25.897 15.3305 25.897 16.32C25.897 17.3095 26.6991 18.1117 27.6886 18.1117Z" fill="black"/>
<path d="M22.3138 25.2785C24.2928 25.2785 25.8971 23.6742 25.8971 21.6951C25.8971 19.7161 24.2928 18.1118 22.3138 18.1118C20.3348 18.1118 18.7305 19.7161 18.7305 21.6951C18.7305 23.6742 20.3348 25.2785 22.3138 25.2785Z" stroke="black" stroke-width="4"/>
</svg>
