<svg width="51" height="51" viewBox="0 0 51 51" fill="none" xmlns="http://www.w3.org/2000/svg">
<circle cx="25.5" cy="25.5" r="25.5" fill="#EEEEEE"/>
<path d="M32.229 13C29.268 13 26.6756 14.2449 25.0596 16.3492C23.4436 14.2449 20.8511 13 17.8901 13C15.5331 13.0026 13.2734 13.9192 11.6068 15.5487C9.94015 17.1782 9.00266 19.3875 9 21.6919C9 31.5054 23.8824 39.4487 24.5161 39.7768C24.6832 39.8647 24.8699 39.9106 25.0596 39.9106C25.2493 39.9106 25.436 39.8647 25.603 39.7768C26.2368 39.4487 41.1191 31.5054 41.1191 21.6919C41.1165 19.3875 40.179 17.1782 38.5124 15.5487C36.8457 13.9192 34.586 13.0026 32.229 13ZM25.0596 37.5057C22.4413 36.014 11.2942 29.2189 11.2942 21.6919C11.2965 19.9823 11.9922 18.3433 13.2286 17.1344C14.4651 15.9255 16.1415 15.2453 17.8901 15.2431C20.679 15.2431 23.0206 16.6955 23.9985 19.0283C24.0849 19.234 24.2319 19.4099 24.4209 19.5337C24.6098 19.6576 24.8321 19.7237 25.0596 19.7237C25.287 19.7237 25.5093 19.6576 25.6983 19.5337C25.8872 19.4099 26.0342 19.234 26.1207 19.0283C27.0986 16.6913 29.4401 15.2431 32.229 15.2431C33.9777 15.2453 35.654 15.9255 36.8905 17.1344C38.127 18.3433 38.8226 19.9823 38.8249 21.6919C38.8249 29.2077 27.675 36.0126 25.0596 37.5057Z" fill="black"/>
</svg>
