<svg width="51" height="51" viewBox="0 0 51 51" fill="none" xmlns="http://www.w3.org/2000/svg">
<circle cx="25.5" cy="25.5" r="25.5" fill="#EEEEEE"/>
<path d="M34.3333 41C33.037 41 31.9352 40.5479 31.0278 39.6437C30.1204 38.7396 29.6667 37.6417 29.6667 36.35C29.6667 36.195 29.7056 35.8333 29.7833 35.265L18.8556 28.91C18.4407 29.2975 17.9611 29.6013 17.4167 29.8214C16.8722 30.0415 16.2889 30.151 15.6667 30.15C14.3704 30.15 13.2685 29.6979 12.3611 28.7937C11.4537 27.8896 11 26.7917 11 25.5C11 24.2083 11.4537 23.1104 12.3611 22.2062C13.2685 21.3021 14.3704 20.85 15.6667 20.85C16.2889 20.85 16.8722 20.9601 17.4167 21.1802C17.9611 21.4003 18.4407 21.7035 18.8556 22.09L29.7833 15.735C29.7315 15.5542 29.6993 15.38 29.6869 15.2126C29.6744 15.0452 29.6677 14.8577 29.6667 14.65C29.6667 13.3583 30.1204 12.2604 31.0278 11.3562C31.9352 10.4521 33.037 10 34.3333 10C35.6296 10 36.7315 10.4521 37.6389 11.3562C38.5463 12.2604 39 13.3583 39 14.65C39 15.9417 38.5463 17.0396 37.6389 17.9437C36.7315 18.8479 35.6296 19.3 34.3333 19.3C33.7111 19.3 33.1278 19.1899 32.5833 18.9698C32.0389 18.7498 31.5593 18.4465 31.1444 18.06L20.2167 24.415C20.2685 24.5958 20.3012 24.7705 20.3147 24.9389C20.3281 25.1073 20.3344 25.2944 20.3333 25.5C20.3323 25.7056 20.3261 25.8932 20.3147 26.0626C20.3033 26.2321 20.2706 26.4062 20.2167 26.585L31.1444 32.94C31.5593 32.5525 32.0389 32.2492 32.5833 32.0301C33.1278 31.8111 33.7111 31.701 34.3333 31.7C35.6296 31.7 36.7315 32.1521 37.6389 33.0562C38.5463 33.9604 39 35.0583 39 36.35C39 37.6417 38.5463 38.7396 37.6389 39.6437C36.7315 40.5479 35.6296 41 34.3333 41ZM34.3333 37.9C34.7741 37.9 35.1438 37.7517 35.4424 37.4551C35.7411 37.1586 35.8899 36.7902 35.8889 36.35C35.8879 35.9098 35.7385 35.5419 35.4409 35.2464C35.1433 34.9509 34.7741 34.8021 34.3333 34.8C33.8926 34.7979 33.5234 34.9467 33.2258 35.2464C32.9281 35.5461 32.7788 35.9139 32.7778 36.35C32.7767 36.7861 32.9261 37.1544 33.2258 37.4551C33.5255 37.7558 33.8947 37.9041 34.3333 37.9ZM15.6667 27.05C16.1074 27.05 16.4771 26.9012 16.7758 26.6036C17.0744 26.306 17.2233 25.9381 17.2222 25.5C17.2212 25.0619 17.0719 24.694 16.7742 24.3964C16.4766 24.0988 16.1074 23.95 15.6667 23.95C15.2259 23.95 14.8567 24.0988 14.5591 24.3964C14.2615 24.694 14.1121 25.0619 14.1111 25.5C14.1101 25.9381 14.2594 26.3065 14.5591 26.6052C14.8588 26.9038 15.228 27.0521 15.6667 27.05ZM34.3333 16.2C34.7741 16.2 35.1438 16.0512 35.4424 15.7536C35.7411 15.456 35.8899 15.0881 35.8889 14.65C35.8879 14.2119 35.7385 13.844 35.4409 13.5464C35.1433 13.2488 34.7741 13.1 34.3333 13.1C33.8926 13.1 33.5234 13.2488 33.2258 13.5464C32.9281 13.844 32.7788 14.2119 32.7778 14.65C32.7767 15.0881 32.9261 15.4565 33.2258 15.7551C33.5255 16.0538 33.8947 16.2021 34.3333 16.2Z" fill="black"/>
</svg>
