<svg width="85" height="85" viewBox="0 0 85 85" fill="none" xmlns="http://www.w3.org/2000/svg">
<path d="M42.5 85C65.9721 85 85 65.9721 85 42.5C85 19.0279 65.9721 0 42.5 0C19.0279 0 0 19.0279 0 42.5C0 65.9721 19.0279 85 42.5 85Z" fill="url(#paint0_linear_0_191)"/>
<path fill-rule="evenodd" clip-rule="evenodd" d="M54.6256 68L57.5399 47.6H27.4602L30.3745 68H54.6256ZM62.9001 40.8H22.1001V44.2L23.54 44.2L61.4602 44.2H62.9001V40.8ZM39.1001 37.4V31.1147L36.4903 27.2H28.1099L25.5001 31.1147V37.4H39.1001ZM59.5 37.4V32.7013L58.4493 30.6H50.3508L49.3001 32.7013V37.4H59.5ZM51 23.8H54.4V27.2H51V23.8ZM55.3959 20.4L57.8001 17.9959V17H49.3001C48.3627 17 47.6001 17.7626 47.6001 18.7V20.4H55.3959ZM28.9001 20.4H35.7001V23.8H28.9001V20.4ZM59.8188 17H61.5798V18.6888H59.8188V17Z" fill="white"/>
<defs>
<linearGradient id="paint0_linear_0_191" x1="0" y1="14.1667" x2="105.474" y2="17.676" gradientUnits="userSpaceOnUse">
<stop stop-color="#FFCC00"/>
<stop offset="1" stop-color="#DB8708"/>
</linearGradient>
</defs>
</svg>
