<svg width="20" height="25" viewBox="0 0 20 25" fill="none" xmlns="http://www.w3.org/2000/svg">
<path d="M9.72222 18.75C9.02388 18.7501 8.3511 18.4872 7.83788 18.0137C7.32466 17.5401 7.00865 16.8905 6.95278 16.1944C5.10026 15.5387 3.53896 14.2496 2.54448 12.5547C1.55 10.8597 1.18628 8.86795 1.51754 6.93093C1.84879 4.9939 2.85372 3.23617 4.35492 1.96803C5.85612 0.699885 7.75708 0.00286174 9.72222 8.76305e-08C11.8124 -0.00030285 13.8263 0.784843 15.3647 2.19976C16.9031 3.61467 17.8536 5.55603 18.0278 7.63889C18.0336 7.72923 18.0205 7.8198 17.9895 7.90483C17.9584 7.98986 17.9099 8.06749 17.8472 8.1328C17.7846 8.19811 17.709 8.24966 17.6253 8.28419C17.5416 8.31871 17.4516 8.33545 17.3611 8.33333C17.1751 8.32867 16.9974 8.25501 16.8627 8.12667C16.7279 7.99833 16.6457 7.82448 16.6319 7.63889C16.5082 6.41088 16.0595 5.23803 15.3319 4.24107C14.6043 3.24412 13.6242 2.45908 12.4924 1.96679C11.3606 1.47449 10.1181 1.29273 8.89269 1.4402C7.66731 1.58768 6.50337 2.05906 5.52071 2.80583C4.53804 3.5526 3.77215 4.54777 3.30188 5.68889C2.83161 6.83001 2.67396 8.07584 2.84515 9.29813C3.01634 10.5204 3.5102 11.675 4.27587 12.643C5.04155 13.611 6.05137 14.3575 7.20139 14.8056C7.41064 14.3534 7.73766 13.9659 8.14816 13.6835C8.55866 13.4012 9.03754 13.2344 9.53463 13.2008C10.0317 13.1671 10.5287 13.2678 10.9735 13.4922C11.4183 13.7166 11.7946 14.0566 12.0629 14.4764C12.3312 14.8962 12.4816 15.3804 12.4985 15.8784C12.5153 16.3763 12.3979 16.8696 12.1586 17.3066C11.9192 17.7436 11.5668 18.1081 11.1381 18.3621C10.7095 18.616 10.2204 18.75 9.72222 18.75ZM2.79028 15.2778H2.91667C3.45833 15.8069 4.05972 16.2736 4.71111 16.6667H2.79028C2.01111 16.6667 1.38889 17.2875 1.38889 18.0556C1.38889 19.8736 2.25278 21.2278 3.7125 22.1569C5.19861 23.1056 7.3125 23.6111 9.72222 23.6111C12.1319 23.6111 14.2458 23.1056 15.7319 22.1569C17.1903 21.2264 18.0556 19.875 18.0556 18.0556C18.0556 17.6872 17.9092 17.3339 17.6488 17.0735C17.3883 16.813 17.035 16.6667 16.6667 16.6667H13.8319C13.9096 16.207 13.9096 15.7375 13.8319 15.2778H16.6667C17.4034 15.2778 18.1099 15.5704 18.6309 16.0914C19.1518 16.6123 19.4444 17.3188 19.4444 18.0556C19.4444 20.4042 18.2875 22.175 16.4792 23.3292C14.6986 24.4639 12.2986 25 9.72222 25C7.14583 25 4.74583 24.4639 2.96528 23.3292C1.15694 22.1764 0 20.4028 0 18.0556C0 16.5097 1.25417 15.2778 2.79028 15.2778ZM15.2778 8.33333C15.2781 9.27311 15.04 10.1976 14.5857 11.0203C14.1315 11.843 13.476 12.5371 12.6806 13.0375C12.3098 12.6636 11.8715 12.3634 11.3889 12.1528C12.2662 11.7699 12.985 11.0966 13.4242 10.2461C13.8635 9.39556 13.9966 8.41973 13.801 7.48267C13.6054 6.54562 13.0932 5.70447 12.3503 5.10069C11.6075 4.4969 10.6795 4.1673 9.72222 4.1673C8.76497 4.1673 7.83691 4.4969 7.0941 5.10069C6.35128 5.70447 5.83902 6.54562 5.64345 7.48267C5.44787 8.41973 5.58091 9.39556 6.0202 10.2461C6.45948 11.0966 7.17822 11.7699 8.05556 12.1528C7.56945 12.3653 7.13194 12.6667 6.76389 13.0375C5.70892 12.3741 4.90765 11.3752 4.48889 10.2014C4.27526 9.60176 4.16626 8.96988 4.16667 8.33333C4.16667 6.85991 4.75198 5.44683 5.79385 4.40496C6.83572 3.36309 8.2488 2.77778 9.72222 2.77778C11.1956 2.77778 12.6087 3.36309 13.6506 4.40496C14.6925 5.44683 15.2778 6.85991 15.2778 8.33333Z" fill="#262626"/>
</svg>
