<svg width="85" height="85" viewBox="0 0 85 85" fill="none" xmlns="http://www.w3.org/2000/svg">
<path d="M42.25 84.5C65.584 84.5 84.5 65.584 84.5 42.25C84.5 18.916 65.584 0 42.25 0C18.916 0 0 18.916 0 42.25C0 65.584 18.916 84.5 42.25 84.5Z" fill="url(#paint0_linear_0_184)"/>
<path fill-rule="evenodd" clip-rule="evenodd" d="M39.1032 19.5988V46.9846C43.2396 48.7881 46.1314 52.9119 46.1314 57.7124C46.1314 64.1732 40.8937 69.4103 34.4335 69.4103C27.9732 69.4103 22.7356 64.1732 22.7356 57.7124C22.7356 52.9119 25.6274 48.7881 29.7637 46.9846V19.5988C29.7637 13.5856 39.1027 13.5856 39.1032 19.5988ZM35.949 53.4035C36.9658 53.7612 37.8233 54.4671 38.3698 55.3962C38.9163 56.3254 39.1165 57.4179 38.935 58.4804C38.7535 59.5429 38.2021 60.5071 37.3782 61.2022C36.5543 61.8973 35.5112 62.2785 34.4332 62.2785C33.3553 62.2785 32.3121 61.8973 31.4882 61.2022C30.6644 60.5071 30.1129 59.5429 29.9314 58.4804C29.75 57.4179 29.9502 56.3254 30.4967 55.3962C31.0431 54.4671 31.9006 53.7612 32.9175 53.4035V37.4081C32.9175 35.7538 35.949 35.7538 35.949 37.4081V53.4035ZM48.612 18.0833H60.5234C62.1781 18.0833 62.1781 21.1143 60.5234 21.1143H48.612C46.9577 21.1143 46.9577 18.0833 48.612 18.0833ZM48.9154 24.9297H56.196C57.8507 24.9297 57.8507 27.9607 56.196 27.9607H48.612C46.9577 27.9607 46.9577 24.9297 48.612 24.9297H48.9154ZM48.9154 31.7762H60.5234C62.1781 31.7762 62.1781 34.8072 60.5234 34.8072H48.612C46.9577 34.8072 46.9577 31.7762 48.612 31.7762H48.9154ZM48.9154 38.6227H56.196C57.8507 38.6227 57.8507 41.6537 56.196 41.6537H48.612C46.9577 41.6537 46.9577 38.6227 48.612 38.6227H48.9154ZM48.612 45.4691H60.5234C62.1781 45.4691 62.1781 48.5001 60.5234 48.5001H48.612C46.9577 48.5001 46.9577 45.4691 48.612 45.4691Z" fill="white"/>
<defs>
<linearGradient id="paint0_linear_0_184" x1="0" y1="14.0833" x2="104.854" y2="17.572" gradientUnits="userSpaceOnUse">
<stop stop-color="#FFCC00"/>
<stop offset="1" stop-color="#DB8708"/>
</linearGradient>
</defs>
</svg>
