<svg width="33" height="27" viewBox="0 0 33 27" fill="none" xmlns="http://www.w3.org/2000/svg">
<path d="M24.2499 26C25.962 26 27.3499 24.6009 27.3499 22.875C27.3499 21.1491 25.962 19.75 24.2499 19.75C22.5378 19.75 21.1499 21.1491 21.1499 22.875C21.1499 24.6009 22.5378 26 24.2499 26Z" stroke="#262626" stroke-width="2" stroke-linecap="round" stroke-linejoin="round"/>
<path d="M8.7499 26C10.462 26 11.8499 24.6009 11.8499 22.875C11.8499 21.1491 10.462 19.75 8.7499 19.75C7.03782 19.75 5.6499 21.1491 5.6499 22.875C5.6499 24.6009 7.03782 26 8.7499 26Z" stroke="#262626" stroke-width="2" stroke-linecap="round" stroke-linejoin="round"/>
<path d="M5.65 22.8313C3.94965 22.7469 2.891 22.4922 2.1346 21.7313C1.3782 20.9703 1.1271 19.9016 1.0434 18.1875M11.85 22.875H21.15M27.35 22.8313C29.0503 22.7469 30.109 22.4922 30.8654 21.7313C32 20.5859 32 18.7453 32 15.0625V11.9375H24.715C23.5602 11.9375 22.9836 11.9375 22.5171 11.7844C22.0519 11.632 21.629 11.3708 21.2831 11.0221C20.9372 10.6734 20.6781 10.2471 20.5269 9.77813C20.375 9.30781 20.375 8.72656 20.375 7.5625C20.375 5.81719 20.375 4.94531 20.1471 4.23906C19.9204 3.53559 19.5317 2.89619 19.0128 2.37316C18.494 1.85012 17.8597 1.45829 17.1618 1.22969C16.4612 1 15.5963 1 13.865 1H1M1 7.25H10.3M1 11.9375H7.2" stroke="#262626" stroke-width="2" stroke-linecap="round" stroke-linejoin="round"/>
<path d="M20.375 4.125H23.1975C25.4543 4.125 26.5812 4.125 27.4988 4.67813C28.418 5.22969 28.9527 6.23125 30.0222 8.23438L32 11.9375" stroke="#262626" stroke-width="2" stroke-linecap="round" stroke-linejoin="round"/>
</svg>
