<svg width="25" height="25" viewBox="0 0 25 25" fill="none" xmlns="http://www.w3.org/2000/svg">
<path opacity="0.3" fill-rule="evenodd" clip-rule="evenodd" d="M10.8143 0.697258C11.2363 0.275795 11.8009 0.0277999 12.3968 0.00219926C12.9927 -0.0234014 13.5765 0.175252 14.0331 0.558966L14.1857 0.69845L16.4508 2.96238H19.6529C20.2542 2.96249 20.8333 3.18981 21.2741 3.5988C21.7149 4.00779 21.9849 4.56825 22.03 5.16789L22.0371 5.34672V8.54888L24.3022 10.814C24.724 11.2361 24.9722 11.801 24.9978 12.3971C25.0234 12.9933 24.8245 13.5774 24.4405 14.034L24.301 14.1855L22.0359 16.4506V19.6527C22.0361 20.2543 21.809 20.8337 21.3999 21.2747C20.9909 21.7158 20.4303 21.986 19.8305 22.0311L19.6529 22.0371H16.452L14.1869 24.3022C13.7648 24.724 13.1999 24.9722 12.6038 24.9978C12.0077 25.0234 11.4236 24.8245 10.9669 24.4405L10.8155 24.3022L8.55043 22.0371H5.34714C4.74562 22.0373 4.16625 21.8101 3.72518 21.4011C3.28411 20.992 3.01393 20.4314 2.96882 19.8316L2.96286 19.6527V16.4506L0.697787 14.1855C0.276 13.7634 0.0278002 13.1985 0.00219759 12.6023C-0.023405 12.0062 0.175451 11.4221 0.559499 10.9654L0.697787 10.814L2.96286 8.54888V5.34672C2.96297 4.74538 3.19028 4.16629 3.59927 3.72547C4.00825 3.28464 4.5687 3.01463 5.16832 2.96953L5.34714 2.96238H8.54924L10.8143 0.697258Z" fill="#5E5E5E" fill-opacity="0.5"/>
<path fill-rule="evenodd" clip-rule="evenodd" d="M16.1707 8.90302L11.1112 13.9626L9.00349 11.8548C8.7798 11.6313 8.47646 11.5058 8.16022 11.5059C7.84398 11.506 7.54074 11.6317 7.31721 11.8554C7.09367 12.0791 6.96815 12.3825 6.96826 12.6987C6.96837 13.015 7.09411 13.3182 7.3178 13.5417L10.1837 16.4077C10.3055 16.5296 10.4501 16.6262 10.6092 16.6921C10.7684 16.7581 10.9389 16.792 11.1112 16.792C11.2835 16.792 11.454 16.7581 11.6132 16.6921C11.7723 16.6262 11.9169 16.5296 12.0387 16.4077L17.8563 10.5887C18.0735 10.3639 18.1937 10.0628 18.1909 9.75017C18.1882 9.43759 18.0629 9.13858 17.8418 8.91754C17.6208 8.6965 17.3218 8.57112 17.0092 8.5684C16.6966 8.56569 16.3955 8.68585 16.1707 8.90302Z" fill="#262626"/>
</svg>
