<svg width="44" height="43" viewBox="0 0 44 43" fill="none" xmlns="http://www.w3.org/2000/svg">
<circle cx="21.9182" cy="21.5" r="21.5" fill="white"/>
<path d="M18.8691 25.6881L25.767 21.4998L18.8691 17.3115V25.6881ZM34.2333 14.7566C34.4061 15.4128 34.5257 16.2923 34.6055 17.4092C34.6985 18.5261 34.7384 19.4894 34.7384 20.3271L34.8181 21.4998C34.8181 24.5572 34.6055 26.805 34.2333 28.243C33.9011 29.4995 33.1302 30.3092 31.934 30.6582C31.3093 30.8397 30.1663 30.9654 28.4119 31.0491C26.6841 31.1469 25.1025 31.1887 23.6405 31.1887L21.5272 31.2725C15.9583 31.2725 12.4894 31.0491 11.1205 30.6582C9.92427 30.3092 9.1534 29.4995 8.82113 28.243C8.64835 27.5868 8.52873 26.7072 8.44898 25.5904C8.35595 24.4735 8.31607 23.5102 8.31607 22.6725L8.23633 21.4998C8.23633 18.4423 8.44898 16.1946 8.82113 14.7566C9.1534 13.5001 9.92427 12.6904 11.1205 12.3413C11.7451 12.1598 12.8881 12.0342 14.6425 11.9504C16.3704 11.8527 17.952 11.8108 19.414 11.8108L21.5272 11.7271C27.0961 11.7271 30.5651 11.9504 31.934 12.3413C33.1302 12.6904 33.9011 13.5001 34.2333 14.7566Z" fill="black"/>
</svg>
